<svg version="1.1" id="Layer_1" xmlns="http://www.w3.org/2000/svg" xmlns:xlink="http://www.w3.org/1999/xlink" x="0px" y="0px" viewBox="0 0 2000 989.2" style="enable-background:new 0 0 2000 989.2" xml:space="preserve">
<g id="Made_in_Wario">
	<path style="opacity:0.25;fill:#003869" d="M1902.2,901.4h-7.9v-39.3h-13.2v-8.7h34.3v8.7h-13.2V901.4z M1961.6,901.4h-9.2v-39.3l0,0l-7.9,39.3h-7.9
		l-7.9-39.3l0,0v39.3h-7.9v-48.1h11.9l7.9,37.9l0,0l7.9-37.9h13.2V901.4z"></path>
	<path style="opacity:0.25;fill:#003869" d="M1998.9,450.9c5-26.3-7.8-52.7-31.5-65.2l-72.3-38.1l52.4-123.8c9.9-23.4,4.3-50.4-14.1-67.9
		c-18.4-17.5-45.7-21.7-68.5-10.6l-101.5,49.3l-57.3-109.7c-11.6-22.1-35.5-34.9-60.3-32.3c-24.8,2.6-45.5,20.1-52.3,44.2
		l-31.4,112.6l-26.1-2c-2.4-13.7-7.9-27.8-18.6-40.7c-19.2-23.2-48.9-35-88.4-35c-15.5,0-32.7,2.7-49.4,8.2c-3.6-0.7-7.3-1-10.9-1
		h-39.9c-0.3-20.7-7.4-40.5-20.4-56.4c-17.1-20.7-42.7-32.6-70.4-32.6c-49.3,0-93.7,36.8-103.2,85.6c-1.6,8.3-2.1,16.5-1.6,24.6
		c-7.4,8.1-12.7,18.2-14.9,29.5l-1.2,6.3c-2.7-4.5-5.7-8.7-9-12.8c-23.3-28.2-60.5-43.8-104.9-43.8c-9.4,0-18.6,0.7-27.4,2l6.5-33.5
		c3.5-17.8-1.2-36.3-12.8-50.3c-11.6-14-28.8-22.1-47-22.1h-86c-29.1,0-54.2,20.6-59.7,49.2l-10.6,54.6c-14.7-0.4-28.6,1.6-41.8,4.6
		c-8.4-24.3-24-44.9-46.1-60.3c-64.8-44.9-164.8-29.1-226,8.7c-14.4,8.9-24.5,23.4-27.8,40.1l0,0.1c-10.4-2.3-21.7-3.5-34-3.5
		c-17.6,0-37.7,3.5-56.5,10.9c-14.3-6.6-32.7-10.9-56.2-10.9c-14.1,0-29.7,2.2-44.9,6.9c-4.5-1-9.1-1.6-13.7-1.6H136
		c-29.1,0-54.2,20.6-59.7,49.2L23.1,456.9c-3.5,17.8,1.2,36.3,12.8,50.3c11.6,14,28.8,22.1,47,22.1H166c5.1,0,10-0.6,14.8-1.8
		c4.8,1.2,9.7,1.8,14.7,1.8h83.2c5.1,0,10-0.6,14.8-1.8c4.8,1.2,9.7,1.8,14.7,1.8h83.2c9.9,0,19.3-2.4,27.6-6.6
		c19.9,10.4,43.8,15.8,70.4,15.8c18.5,0,36.8-2.8,53.8-8h74.1c9.3,0,18.2-2.1,26.2-5.9c8.5,4.2,17.7,7.4,27.5,9.8h-9.8
		c-29.1,0-54.2,20.6-59.7,49.3l-40.3,207.2c-7.8,40.1,0.3,77.3,22.8,104.6c16.2,19.7,47.6,43.1,105.1,43.1c29.5,0,53.5-6,72.8-14.8
		c17.5,8.8,40.1,14.8,69.5,14.8c41.7,0,74.4-12.1,99-30.5c22,15.3,50.6,23.5,83.2,23.5c18.4,0,36.8-2.8,53.8-8.1h74.1
		c3.7,0,7.4-0.3,11-1c3.6,0.7,7.3,1,11,1h87.1c15,0,29-5.5,39.7-14.8c11,9.5,25,14.8,39.7,14.8h84.7c19,0,36.2-8.8,47.4-22.8
		c9.7,12.6,20.7,24.3,33.1,34.9c40.8,34.8,91.3,53.5,143.9,53.5c6.4,0,12.7-0.3,19.1-0.8c59.8-5.1,114.2-33.1,153.2-78.7
		c25.1-29.4,41.8-63.8,49.3-100.5c4.7-3.4,9-7.3,12.7-11.9l96.5-120c19.3-24.1,18.9-58.5-1.1-82c-20-23.6-53.8-29.6-80.8-14.5
		l-30.5,17.1c-0.4-0.7-0.9-1.5-1.4-2.2c11.1-11.8,17.3-27.7,16.5-44.5l-2.1-42.7l74.9-8.3C1972.4,497.2,1993.9,477.2,1998.9,450.9z"></path>
	<path style="fill:#003869" d="M1880.3,866h-7.9v-39.3h-13.2V818h34.3v8.7h-13.2V866z M1939.7,866h-9.2v-39.3l0,0l-7.9,39.3h-7.9l-7.9-39.3
		l0,0V866h-7.9V818h11.9l7.9,37.9l0,0l7.9-37.9h13.2V866z"></path>
	<path style="fill:#003869" d="M1977,415.5c5-26.3-7.8-52.7-31.5-65.2l-72.3-38.1l52.4-123.8c9.9-23.4,4.3-50.4-14.1-67.9
		s-45.7-21.7-68.5-10.6l-101.5,49.3l-57.3-109.7c-11.6-22.1-35.5-34.9-60.3-32.3c-24.8,2.6-45.5,20.1-52.3,44.2l-31.4,112.6l-26.1-2
		c-2.4-13.7-7.9-27.8-18.6-40.7c-19.2-23.2-48.9-35-88.4-35c-15.5,0-32.7,2.7-49.4,8.2c-3.6-0.7-7.3-1-10.9-1h-39.9
		c-0.3-20.7-7.4-40.5-20.4-56.4c-17.1-20.7-42.7-32.6-70.4-32.6c-49.3,0-93.7,36.8-103.2,85.6c-1.6,8.3-2.1,16.5-1.6,24.6
		c-7.4,8.1-12.7,18.2-14.9,29.5l-1.2,6.3c-2.7-4.5-5.7-8.7-9-12.8c-23.3-28.2-60.5-43.8-104.9-43.8c-9.4,0-18.6,0.7-27.4,2l6.5-33.5
		c3.5-17.8-1.2-36.3-12.8-50.3C935.9,8.1,918.7,0,900.5,0h-86c-29.1,0-54.2,20.6-59.7,49.2l-10.6,54.6c-14.7-0.4-28.6,1.6-41.8,4.6
		c-8.4-24.3-24-44.9-46.1-60.3c-64.8-44.9-164.8-29.1-226,8.7c-14.4,8.9-24.5,23.4-27.8,40.1l0,0.1c-10.4-2.3-21.7-3.5-34-3.5
		c-17.6,0-37.7,3.5-56.5,10.9c-14.3-6.6-32.7-10.9-56.2-10.9c-14.1,0-29.7,2.2-44.9,6.9c-4.5-1-9.1-1.6-13.7-1.6H114
		c-29.1,0-54.2,20.6-59.7,49.2L1.1,421.5c-3.5,17.8,1.2,36.3,12.8,50.3c11.6,14,28.8,22.1,47,22.1h83.2c5.1,0,10-0.6,14.8-1.8
		c4.8,1.2,9.7,1.8,14.7,1.8h83.2c5.1,0,10-0.6,14.8-1.8c4.8,1.2,9.7,1.8,14.7,1.8h83.2c9.9,0,19.3-2.4,27.6-6.6
		c19.9,10.4,43.8,15.8,70.4,15.8c18.5,0,36.8-2.8,53.8-8h74.1c9.3,0,18.2-2.1,26.2-5.9c8.5,4.2,17.7,7.4,27.5,9.8h-9.8
		c-29.1,0-54.2,20.6-59.7,49.3l-40.3,207.2c-7.8,40.1,0.3,77.3,22.8,104.6c16.2,19.7,47.6,43.1,105.1,43.1c29.5,0,53.5-6,72.8-14.8
		c17.5,8.8,40.1,14.8,69.5,14.8c41.7,0,74.4-12.1,99-30.5c22,15.3,50.6,23.5,83.2,23.5c18.4,0,36.8-2.8,53.8-8.1h74.1
		c3.7,0,7.4-0.3,11-1c3.6,0.7,7.3,1,11,1h87.1c15,0,29-5.5,39.7-14.8c11,9.5,25,14.8,39.7,14.8h84.7c19,0,36.2-8.8,47.4-22.8
		c9.7,12.6,20.7,24.3,33.1,34.9c40.8,34.8,91.3,53.5,143.9,53.5c6.4,0,12.7-0.3,19.1-0.8c59.8-5.1,114.2-33.1,153.2-78.7
		c25.1-29.4,41.8-63.8,49.3-100.5c4.7-3.4,9-7.3,12.7-11.9l96.5-120c19.3-24.1,18.9-58.5-1.1-82c-20-23.6-53.8-29.6-80.8-14.5
		l-30.5,17.1c-0.4-0.7-0.9-1.5-1.4-2.2c11.1-11.8,17.3-27.7,16.5-44.5l-2.1-42.7l74.9-8.3C1950.4,461.8,1972,441.8,1977,415.5z"></path>
	<path style="fill:#FFFFFF;stroke:#FFFFFF;stroke-width:42.9606;stroke-linecap:round;stroke-linejoin:round;stroke-miterlimit:10" d="M369.5,433.1h-83.2l41.6-214.3c1.3-6.7-1.2-14.4-12.3-14.4c-11.1,0-15.9,7.7-17.2,14.4l-41.7,214.3h-83.2
		l41.6-214.3c1.3-6.7-1.2-14.4-12.3-14.4c-11.1,0-15.9,7.7-17.2,14.4l-41.6,214.3H60.9L114,159.7h83.2l-4.3,22.1h1.3
		c8.6-16.8,39.4-27.4,61.7-27.4c33.4,0,44.3,11.2,46.4,27.4l0,0h4.6c8.6-16.8,39.4-27.4,61.7-27.4c53.1,0,49.5,28.4,43.4,60.2
		L369.5,433.1z M595.5,434.3H511c-13.3,5.3-28.3,8.1-43.5,8.1c-42.2,0-73.6-20.1-65.7-60.5l30.3-154.1c7.9-40.4,47.3-60.5,89.5-60.5
		c14.5,0,27.9,2.5,38.9,7.4c6.3-58.9-64-54.5-104.9-31.5l6.8-34.5c73.3-45.3,204.9-39.9,184.3,65
		C629.1,263.1,595.5,434.3,595.5,434.3z M520.2,216.4c1.5-7.3-0.7-15.7-11.2-15.7c-10.6,0-15.3,8.4-16.8,15.7l-34.8,176.9
		c-1.4,7.3,0,15.7,10.6,15.7c10.6,0,16-8.4,17.4-15.7L520.2,216.4z M900.5,60.9l-72.3,371.9h-86l0.6-2.9
		c-15.6,8.6-34.5,12.9-53.6,12.9c-42.3,0-73.8-20.4-65.8-61.2L654,225.9c8-40.8,47.5-61.2,89.9-61.2c18.9,0,35.9,4.2,48.1,12.6
		l22.6-116.4H900.5z M741.9,216.7c1.5-7.3-0.7-15.6-11.3-15.6c-10.6,0-15.4,8.3-16.8,15.6l-34.6,175.6c-1.4,7.3,0.1,15.6,10.7,15.6
		c10.6,0,16-8.3,17.4-15.6L741.9,216.7z M948,275.8h23.7l9.8-50.3c1.3-6.8-0.3-14.7-9.2-14.7c-9,0-13.1,7.8-14.4,14.7L948,275.8z
		 M1017.3,383.9l-8.1,41.4c-23.4,21-47.4,26.1-83.8,26.1c-42.6,0-74.3-21-66.1-63l31.1-160.3c8.2-42,48-63.1,90.6-63.1
		c42.1,0,74.8,21,66.6,63.1l-16.4,84.6h-0.2l-1,5.3h-90.3L929.7,370c-3.8,19.3,10.2,37.4,42,37.4
		C982.8,407.4,1001.7,403.6,1017.3,383.9 M1240.7,166H1156l-53.4,274.6h84.7L1240.7,166z M1245.3,111.8
		c-3.9,20.1-23.4,36.4-43.4,36.4c-20.1,0-33.2-16.3-29.3-36.4s23.4-36.4,43.4-36.4C1236.1,75.5,1249.2,91.8,1245.3,111.8z
		 M1346.7,164.4h-85.1l-53.7,276.2h85.2l42.3-217.8c1.3-6.8,6.2-14.7,17.6-14.7c11.4,0,13.9,7.8,12.6,14.7l-42.3,217.8h85.1
		l43.2-222.3c6.3-32.3,9.9-61.2-44.4-61.2c-22.8,0-54.3,10.8-63.1,27.9h-1.3L1346.7,164.4z"></path>
	<path style="fill:#FFFFFF;stroke:#FFFFFF;stroke-width:42.9606;stroke-linecap:round;stroke-linejoin:round;stroke-miterlimit:10" d="M1392.8,827.3h-84.7l53.4-274.6h84.7L1392.8,827.3z M1421.5,462.1c-20.1,0-39.5,16.3-43.4,36.4
		c-3.9,20.1,9.2,36.4,29.3,36.4s39.5-16.3,43.4-36.4S1441.6,462.1,1421.5,462.1z M864.2,559.9l-41.9,215.7
		c-1.3,6.8-6.8,14.6-17.9,14.6c-11.1,0-12.9-7.8-11.5-14.6l41.9-215.7h-23.3h-36.3h-23.4l-41.9,215.7c-1.3,6.8-6.1,14.6-17.2,14.6
		c-11.1,0-13.5-7.8-12.2-14.6l41.9-215.7h-83l-40.3,207.2c-4,20.8-7.2,75.2,68.2,75.2c39.5,0,63.1-15,77.4-32.2
		c7.5,17.2,25.4,32.2,64.9,32.2c75.4,0,93.4-54.4,97.5-75.2l40.3-207.2L864.2,559.9L864.2,559.9z M1170.8,566.6
		c20.6-104.9-110.9-110.3-184.3-65l-6.8,34.5c40.9-23.1,111.2-27.4,104.9,31.5c-11-4.9-24.3-7.4-38.9-7.4
		c-42.2,0-81.6,20.2-89.5,60.5l-30.3,154.1c-7.9,40.4,23.5,60.5,65.7,60.5c15.2,0,30.2-2.7,43.5-8.1h84.5
		C1119.6,827.3,1153.2,656.1,1170.8,566.6z M1009.5,786.3c-1.4,7.3-6.8,15.7-17.4,15.7c-10.6,0-12-8.4-10.6-15.7l34.8-176.9
		c1.4-7.3,6.2-15.7,16.8-15.7c10.6,0,12.7,8.4,11.2,15.7L1009.5,786.3z M1330.7,612.3l10.9-56.1c-26.8,0-59.4,25.5-71.6,58.1
		l13.1-67.3H1196l-54.5,280.3h87.1l28.1-144.7C1268.8,642,1294.9,612.3,1330.7,612.3z"></path>
	<polygon style="fill:#FFFFFF;stroke:#FFFFFF;stroke-width:42.9606;stroke-linecap:round;stroke-linejoin:round;stroke-miterlimit:10" points="1585.4,238.6 1630.3,77.9 1714.9,239.9 1869.6,164.7 1795.3,340 1917.2,404.2 1785.4,418.7 
		1790.2,518.6 1728.9,467.2 1691.9,529.8 1646.3,446.8 1554.2,514.8 1580.5,409.7 1436.8,427 1556.9,332.4 1455.7,228.7 	"></polygon>
	<linearGradient id="SVGID_1_" gradientUnits="userSpaceOnUse" x1="757.9329" y1="435.6847" x2="757.9329" y2="-44.965">
		<stop offset="0" style="stop-color:#00396C"></stop>
		<stop offset="3.370000e-02" style="stop-color:#003767"></stop>
		<stop offset="0.3595" style="stop-color:#006CB7"></stop>
		<stop offset="1" style="stop-color:#006CB7"></stop>
	</linearGradient>
	<path style="fill:url(#SVGID_1_)" d="M369.5,433.1h-83.2l41.6-214.3c1.3-6.7-1.2-14.4-12.3-14.4c-11.1,0-15.9,7.7-17.2,14.4l-41.7,214.3h-83.2
		l41.6-214.3c1.3-6.7-1.2-14.4-12.3-14.4c-11.1,0-15.9,7.7-17.2,14.4l-41.6,214.3H60.9L114,159.7h83.2l-4.3,22.1h1.3
		c8.6-16.8,39.4-27.4,61.7-27.4c33.4,0,44.3,11.2,46.4,27.4l0,0h4.6c8.6-16.8,39.4-27.4,61.7-27.4c53.1,0,49.5,28.4,43.4,60.2
		L369.5,433.1z M595.5,434.3H511c-13.3,5.3-28.3,8.1-43.5,8.1c-42.2,0-73.6-20.1-65.7-60.5l30.3-154.1c7.9-40.4,47.3-60.5,89.5-60.5
		c14.5,0,27.9,2.5,38.9,7.4c6.3-58.9-64-54.5-104.9-31.5l6.8-34.5c73.3-45.3,204.9-39.9,184.3,65
		C629.1,263.1,595.5,434.3,595.5,434.3z M520.2,216.4c1.5-7.3-0.7-15.7-11.2-15.7c-10.6,0-15.3,8.4-16.8,15.7l-34.8,176.9
		c-1.4,7.3,0,15.7,10.6,15.7c10.6,0,16-8.4,17.4-15.7L520.2,216.4z M900.5,60.9l-72.3,371.9h-86l0.6-2.9
		c-15.6,8.6-34.5,12.9-53.6,12.9c-42.3,0-73.8-20.4-65.8-61.2L654,225.9c8-40.8,47.5-61.2,89.9-61.2c18.9,0,35.9,4.2,48.1,12.6
		l22.6-116.4H900.5z M741.9,216.7c1.5-7.3-0.7-15.6-11.3-15.6c-10.6,0-15.4,8.3-16.8,15.6l-34.6,175.6c-1.4,7.3,0.1,15.6,10.7,15.6
		c10.6,0,16-8.3,17.4-15.6L741.9,216.7z M948,275.8h23.7l9.8-50.3c1.3-6.8-0.3-14.7-9.2-14.7c-9,0-13.1,7.8-14.4,14.7L948,275.8z
		 M1017.3,383.9l-8.1,41.4c-23.4,21-47.4,26.1-83.8,26.1c-42.6,0-74.3-21-66.1-63l31.1-160.3c8.2-42,48-63.1,90.6-63.1
		c42.1,0,74.8,21,66.6,63.1l-16.4,84.6h-0.2l-1,5.3h-90.3L929.7,370c-3.8,19.3,10.2,37.4,42,37.4
		C982.8,407.4,1001.7,403.6,1017.3,383.9 M1240.7,166H1156l-53.4,274.6h84.7L1240.7,166z M1245.3,111.8
		c-3.9,20.1-23.4,36.4-43.4,36.4c-20.1,0-33.2-16.3-29.3-36.4s23.4-36.4,43.4-36.4C1236.1,75.5,1249.2,91.8,1245.3,111.8z
		 M1346.7,164.4h-85.1l-53.7,276.2h85.2l42.3-217.8c1.3-6.8,6.2-14.7,17.6-14.7c11.4,0,13.9,7.8,12.6,14.7l-42.3,217.8h85.1
		l43.2-222.3c6.3-32.3,9.9-61.2-44.4-61.2c-22.8,0-54.3,10.8-63.1,27.9h-1.3L1346.7,164.4z"></path>
	
		<linearGradient id="SVGID_00000075124510515036368800000006983722959153885826_" gradientUnits="userSpaceOnUse" x1="1024.4086" y1="827.1007" x2="1024.4086" y2="359.09">
		<stop offset="0" style="stop-color:#00396C"></stop>
		<stop offset="3.370000e-02" style="stop-color:#003767"></stop>
		<stop offset="0.3595" style="stop-color:#006CB7"></stop>
		<stop offset="1" style="stop-color:#006CB7"></stop>
	</linearGradient>
	<path style="fill:url(#SVGID_00000075124510515036368800000006983722959153885826_)" d="M1392.8,827.3h-84.7l53.4-274.6h84.7
		L1392.8,827.3z M1421.5,462.1c-20.1,0-39.5,16.3-43.4,36.4c-3.9,20.1,9.2,36.4,29.3,36.4s39.5-16.3,43.4-36.4
		S1441.6,462.1,1421.5,462.1z M864.2,559.9l-41.9,215.7c-1.3,6.8-6.8,14.6-17.9,14.6c-11.1,0-12.9-7.8-11.5-14.6l41.9-215.7h-23.3
		h-36.3h-23.4l-41.9,215.7c-1.3,6.8-6.1,14.6-17.2,14.6c-11.1,0-13.5-7.8-12.2-14.6l41.9-215.7h-83l-40.3,207.2
		c-4,20.8-7.2,75.2,68.2,75.2c39.5,0,63.1-15,77.4-32.2c7.5,17.2,25.4,32.2,64.9,32.2c75.4,0,93.4-54.4,97.5-75.2l40.3-207.2
		L864.2,559.9L864.2,559.9z M1170.8,566.6c20.6-104.9-110.9-110.3-184.3-65l-6.8,34.5c40.9-23.1,111.2-27.4,104.9,31.5
		c-11-4.9-24.3-7.4-38.9-7.4c-42.2,0-81.6,20.2-89.5,60.5l-30.3,154.1c-7.9,40.4,23.5,60.5,65.7,60.5c15.2,0,30.2-2.7,43.5-8.1h84.5
		C1119.6,827.3,1153.2,656.1,1170.8,566.6z M1009.5,786.3c-1.4,7.3-6.8,15.7-17.4,15.7c-10.6,0-12-8.4-10.6-15.7l34.8-176.9
		c1.4-7.3,6.2-15.7,16.8-15.7c10.6,0,12.7,8.4,11.2,15.7L1009.5,786.3z M1330.7,612.3l10.9-56.1c-26.8,0-59.4,25.5-71.6,58.1
		l13.1-67.3H1196l-54.5,280.3h87.1l28.1-144.7C1268.8,642,1294.9,612.3,1330.7,612.3z"></path>
	<polygon style="fill:#FFFFFF;stroke:#FFFFFF;stroke-width:40.8125;stroke-linecap:round;stroke-linejoin:round;stroke-miterlimit:10" points="1654.5,656.3 1680.3,728.1 1770.1,670.9 1801.5,721.4 1897.9,601.4 1808.2,651.8 1780.2,594.6 	"></polygon>
	<polygon style="fill:#FFFFFF;stroke:#FFFFFF;stroke-width:40.8125;stroke-linecap:round;stroke-linejoin:round;stroke-miterlimit:10" points="1589.4,646.6 1566.3,716 1488.8,633.9 1455.3,672.1 1403.2,555.3 1459.9,614.2 1505,573.8 	"></polygon>
	<path style="fill:#FFFFFF;stroke:#FFFFFF;stroke-width:42.9606;stroke-linecap:round;stroke-linejoin:round" d="M1616.1,574.5c-22.7-49.4-13.7-132.7,43.5-136.6l21.9,25.7c-50.4,27.2-56.3,59-50.8,108.1
		C1632.2,582.6,1620,582.4,1616.1,574.5z"></path>
	<path style="fill:#FFFFFF;stroke:#FFFFFF;stroke-width:39.3805;stroke-miterlimit:10" d="M1782,715.1c7.7,90.3-60.6,169.4-150.8,177.2s-169.5-61.7-176.1-152c-7.7-90.3,60.6-169.4,150.8-177.2
		C1696.2,556.5,1775.4,624.8,1782,715.1z"></path>
	
		<linearGradient id="SVGID_00000129886299046764868480000000292127704219235496_" gradientUnits="userSpaceOnUse" x1="2203.9189" y1="-1448.3181" x2="2203.9189" y2="-1097.6735" gradientTransform="matrix(0.9128 -7.270148e-02 -7.270148e-02 -0.9128 -485.0821 -265.4772)">
		<stop offset="0" style="stop-color:#00396C"></stop>
		<stop offset="3.370000e-02" style="stop-color:#003767"></stop>
		<stop offset="0.3595" style="stop-color:#006CB7"></stop>
		<stop offset="1" style="stop-color:#006CB7"></stop>
	</linearGradient>
	<path style="fill:url(#SVGID_00000129886299046764868480000000292127704219235496_)" d="M1782,715.1
		c7.7,90.3-60.6,169.4-150.8,177.2s-169.5-61.7-176.1-152c-7.7-90.3,60.6-169.4,150.8-177.2C1696.2,556.5,1775.4,624.8,1782,715.1z"></path>
	<polygon style="fill:#FFFFFF;stroke:#FFFFFF;stroke-width:28.6404;stroke-linecap:round;stroke-linejoin:round;stroke-miterlimit:10" points="1654.5,656.3 1680.3,728.1 1770.1,670.9 1801.5,721.4 1897.9,601.4 1808.2,651.8 1780.2,594.6 	"></polygon>
	<polygon style="fill:#FFFFFF;stroke:#FFFFFF;stroke-width:28.6404;stroke-linecap:round;stroke-linejoin:round;stroke-miterlimit:10" points="1589.4,646.6 1566.3,716 1488.8,633.9 1455.3,672.1 1403.2,555.3 1459.9,614.2 1505,573.8 	"></polygon>
	<path style="fill:#FFFFFF" d="M1619.1,704.2c35.6,1.1,114.1-46.4,128.9-18.3c34.2,59.5,2,156.9-149.8,140.5
		c-74.8-7.7-159.5-72.4-102.8-154.6C1535.6,610.8,1572,702.4,1619.1,704.2z"></path>
	<polygon style="fill:#003869" points="1654.5,656.3 1680.3,728.1 1770.1,670.9 1801.5,721.4 1897.9,601.4 1808.2,651.8 1780.2,594.6 	"></polygon>
	<polygon style="fill:#003869" points="1589.4,646.6 1566.3,716 1488.8,633.9 1455.3,672.1 1403.2,555.3 1459.9,614.2 1505,573.8 	"></polygon>
	<path style="fill:none;stroke:#006CB7;stroke-width:10.4916;stroke-linecap:round;stroke-linejoin:round" d="M1511.4,705.7c21.9,69.1,159.2,94.2,208.8,38.6"></path>
	
		<radialGradient id="SVGID_00000124868118647683432170000000485303391775664013_" cx="1677.0045" cy="303.8409" r="233.1898" gradientUnits="userSpaceOnUse">
		<stop offset="0" style="stop-color:#E9202E"></stop>
		<stop offset="2.500000e-03" style="stop-color:#E9232E"></stop>
		<stop offset="7.440000e-02" style="stop-color:#F36D2A"></stop>
		<stop offset="0.1339" style="stop-color:#F9A427"></stop>
		<stop offset="0.1782" style="stop-color:#FDC526"></stop>
		<stop offset="0.2022" style="stop-color:#FFD225"></stop>
		<stop offset="0.2976" style="stop-color:#FDC526"></stop>
		<stop offset="0.4738" style="stop-color:#F9A327"></stop>
		<stop offset="0.7114" style="stop-color:#F26C2A"></stop>
		<stop offset="1" style="stop-color:#E9202E"></stop>
	</radialGradient>
	<polygon style="fill:url(#SVGID_00000124868118647683432170000000485303391775664013_)" points="1585.4,238.6 1630.3,77.9 
		1714.9,239.9 1869.6,164.7 1795.3,340 1917.2,404.2 1785.4,418.7 1790.2,518.6 1728.9,467.2 1691.9,529.8 1646.3,446.8 
		1554.2,514.8 1580.5,409.7 1436.8,427 1556.9,332.4 1455.7,228.7 	"></polygon>
	<polygon style="fill:#FFF200" points="1656.1,418.6 1671.4,481.7 1707.8,434.7 1754.4,465.6 1748.1,401.8 1829,388 1754.2,349.2 
		1800.1,232.1 1701.7,278.3 1643.2,179.5 1605.5,279.7 1526.7,274.2 1592.3,341.3 1519.3,401.8 1605.1,399.8 1589.8,455.1 	"></polygon>
	<polygon style="fill:#ED1C24" points="1632.1,348 1603.2,375 1638.5,373.3 1633.5,401 1658.2,384 1672.2,402.7 1684.9,387.7 1703.3,399 
		1697.8,373.9 1735.8,370.2 1705.6,348.6 1719.3,300.1 1679.6,319.1 1657.6,279.9 1639,321.9 1607,319.6 	"></polygon>
	<line style="fill:none;stroke:#006CB7;stroke-width:10.4916;stroke-linecap:round;stroke-linejoin:round" x1="1539.2" y1="713.9" x2="1511.8" y2="750.3"></line>
	<line style="fill:none;stroke:#006CB7;stroke-width:10.4916;stroke-linecap:round;stroke-linejoin:round" x1="1586.7" y1="730.5" x2="1562.4" y2="788.7"></line>
	<line style="fill:none;stroke:#006CB7;stroke-width:10.4916;stroke-linecap:round;stroke-linejoin:round" x1="1639.7" y1="737.8" x2="1637.5" y2="805.5"></line>
	<line style="fill:none;stroke:#006CB7;stroke-width:10.4916;stroke-linecap:round;stroke-linejoin:round" x1="1690.2" y1="739.5" x2="1709.1" y2="788.1"></line>
	<path style="fill:#FFFFFF;stroke:#FFFFFF;stroke-width:21.4803;stroke-linecap:round;stroke-linejoin:round" d="M1616.1,574.5c-22.7-49.4-13.7-132.7,43.5-136.6l21.9,25.7c-50.4,27.2-56.3,59-50.8,108.1
		C1632.2,582.6,1620,582.4,1616.1,574.5z"></path>
	<path style="fill:#003869" d="M1616.1,574.5c-22.7-49.4-13.7-132.7,43.5-136.6l21.9,25.7c-50.4,27.2-56.3,59-50.8,108.1
		C1632.2,582.6,1620,582.4,1616.1,574.5z"></path>
	<path style="fill:none;stroke:#FFFFFF;stroke-width:6.1454" d="M1665.1,481c-14,16.2-70.8,13.7-55.2-10.3"></path>
	<path style="fill:none;stroke:#FFFFFF;stroke-width:8.3786;stroke-linecap:square;stroke-linejoin:round" d="M1638.4,531.2c-3.7,28-46,31.9-40.9,5.5"></path>
	<path style="fill:none;stroke:#FFFFFF;stroke-width:8.3786;stroke-linecap:square;stroke-linejoin:round" d="M1647.1,506c-13.3,27.5-56.8,25.3-48.6-4"></path>
</g>
</svg>